<mxfile host="Electron" agent="Mozilla/5.0 (Windows NT 10.0; Win64; x64) AppleWebKit/537.36 (KHTML, like Gecko) draw.io/24.7.17 Chrome/128.0.6613.36 Electron/32.0.1 Safari/537.36" version="24.7.17">
  <diagram name="Page-1" id="AbDhWT1tx2h1V6NKrcqI">
    <mxGraphModel dx="1036" dy="614" grid="1" gridSize="10" guides="1" tooltips="1" connect="1" arrows="1" fold="1" page="1" pageScale="1" pageWidth="850" pageHeight="1100" math="0" shadow="0">
      <root>
        <mxCell id="0" />
        <mxCell id="1" parent="0" />
        <mxCell id="-ONRqXB-hZa3HiM5yPUT-2" value="Admin&lt;br&gt;(Quản Lý Hệ Thống)" style="shape=umlActor;verticalLabelPosition=bottom;verticalAlign=top;html=1;outlineConnect=0;" parent="1" vertex="1">
          <mxGeometry x="100" y="310" width="30" height="60" as="geometry" />
        </mxCell>
        <mxCell id="-ONRqXB-hZa3HiM5yPUT-3" value="User&lt;br&gt;(Khách Hàng)" style="shape=umlActor;verticalLabelPosition=bottom;verticalAlign=top;html=1;outlineConnect=0;" parent="1" vertex="1">
          <mxGeometry x="100" y="70" width="30" height="60" as="geometry" />
        </mxCell>
        <mxCell id="-ONRqXB-hZa3HiM5yPUT-9" value="Service Provider&lt;br&gt;(Nhà Cung Cấp Dịch Vụ)" style="shape=umlActor;verticalLabelPosition=bottom;verticalAlign=top;html=1;outlineConnect=0;" parent="1" vertex="1">
          <mxGeometry x="730" y="310" width="30" height="60" as="geometry" />
        </mxCell>
        <mxCell id="-ONRqXB-hZa3HiM5yPUT-12" value="Tìm kiếm dịch vụ" style="ellipse;whiteSpace=wrap;html=1;" parent="1" vertex="1">
          <mxGeometry x="255" y="20" width="110" height="50" as="geometry" />
        </mxCell>
        <mxCell id="-ONRqXB-hZa3HiM5yPUT-13" value="" style="endArrow=classic;html=1;rounded=0;" parent="1" source="-ONRqXB-hZa3HiM5yPUT-3" target="-ONRqXB-hZa3HiM5yPUT-12" edge="1">
          <mxGeometry width="50" height="50" relative="1" as="geometry">
            <mxPoint x="400" y="340" as="sourcePoint" />
            <mxPoint x="450" y="290" as="targetPoint" />
          </mxGeometry>
        </mxCell>
        <mxCell id="-ONRqXB-hZa3HiM5yPUT-14" value="" style="endArrow=classic;html=1;rounded=0;" parent="1" source="-ONRqXB-hZa3HiM5yPUT-3" target="-ONRqXB-hZa3HiM5yPUT-15" edge="1">
          <mxGeometry width="50" height="50" relative="1" as="geometry">
            <mxPoint x="150" y="187" as="sourcePoint" />
            <mxPoint x="470" y="380" as="targetPoint" />
          </mxGeometry>
        </mxCell>
        <mxCell id="-ONRqXB-hZa3HiM5yPUT-15" value="Xem thông tin dịch vụ" style="ellipse;whiteSpace=wrap;html=1;" parent="1" vertex="1">
          <mxGeometry x="410" y="70" width="120" height="50" as="geometry" />
        </mxCell>
        <mxCell id="-ONRqXB-hZa3HiM5yPUT-16" value="" style="endArrow=classic;html=1;rounded=0;" parent="1" source="-ONRqXB-hZa3HiM5yPUT-3" target="-ONRqXB-hZa3HiM5yPUT-17" edge="1">
          <mxGeometry width="50" height="50" relative="1" as="geometry">
            <mxPoint x="150" y="287" as="sourcePoint" />
            <mxPoint x="470" y="480" as="targetPoint" />
          </mxGeometry>
        </mxCell>
        <mxCell id="-ONRqXB-hZa3HiM5yPUT-17" value="Đặt chỗ" style="ellipse;whiteSpace=wrap;html=1;" parent="1" vertex="1">
          <mxGeometry x="255" y="120" width="110" height="50" as="geometry" />
        </mxCell>
        <mxCell id="-ONRqXB-hZa3HiM5yPUT-18" value="Thanh toán" style="ellipse;whiteSpace=wrap;html=1;" parent="1" vertex="1">
          <mxGeometry x="257.5" y="190" width="110" height="50" as="geometry" />
        </mxCell>
        <mxCell id="-ONRqXB-hZa3HiM5yPUT-19" value="" style="endArrow=classic;html=1;rounded=0;" parent="1" source="-ONRqXB-hZa3HiM5yPUT-3" target="-ONRqXB-hZa3HiM5yPUT-18" edge="1">
          <mxGeometry width="50" height="50" relative="1" as="geometry">
            <mxPoint x="140" y="190.13" as="sourcePoint" />
            <mxPoint x="480" y="559.13" as="targetPoint" />
          </mxGeometry>
        </mxCell>
        <mxCell id="-ONRqXB-hZa3HiM5yPUT-20" value="Đăng nhập" style="ellipse;whiteSpace=wrap;html=1;" parent="1" vertex="1">
          <mxGeometry x="560" y="140" width="120" height="50" as="geometry" />
        </mxCell>
        <mxCell id="-ONRqXB-hZa3HiM5yPUT-23" value="&amp;lt;&amp;lt;include&amp;gt;&amp;gt;" style="html=1;verticalAlign=bottom;labelBackgroundColor=none;endArrow=open;endFill=0;dashed=1;rounded=0;" parent="1" source="-ONRqXB-hZa3HiM5yPUT-20" target="-ONRqXB-hZa3HiM5yPUT-17" edge="1">
          <mxGeometry width="160" relative="1" as="geometry">
            <mxPoint x="340" y="320" as="sourcePoint" />
            <mxPoint x="500" y="320" as="targetPoint" />
          </mxGeometry>
        </mxCell>
        <mxCell id="-ONRqXB-hZa3HiM5yPUT-24" value="&amp;lt;&amp;lt;include&amp;gt;&amp;gt;" style="html=1;verticalAlign=bottom;labelBackgroundColor=none;endArrow=open;endFill=0;dashed=1;rounded=0;" parent="1" source="-ONRqXB-hZa3HiM5yPUT-20" target="-ONRqXB-hZa3HiM5yPUT-18" edge="1">
          <mxGeometry width="160" relative="1" as="geometry">
            <mxPoint x="546.64" y="322.19" as="sourcePoint" />
            <mxPoint x="374.64" y="310.19" as="targetPoint" />
          </mxGeometry>
        </mxCell>
        <mxCell id="-ONRqXB-hZa3HiM5yPUT-25" value="Giám sát" style="ellipse;whiteSpace=wrap;html=1;" parent="1" vertex="1">
          <mxGeometry x="275" y="310" width="110" height="50" as="geometry" />
        </mxCell>
        <mxCell id="-ONRqXB-hZa3HiM5yPUT-26" value="" style="endArrow=classic;html=1;rounded=0;" parent="1" source="-ONRqXB-hZa3HiM5yPUT-2" target="-ONRqXB-hZa3HiM5yPUT-25" edge="1">
          <mxGeometry width="50" height="50" relative="1" as="geometry">
            <mxPoint x="150" y="386" as="sourcePoint" />
            <mxPoint x="470" y="580" as="targetPoint" />
          </mxGeometry>
        </mxCell>
        <mxCell id="-ONRqXB-hZa3HiM5yPUT-27" value="Quản lý toàn bộ hệ thống" style="ellipse;whiteSpace=wrap;html=1;" parent="1" vertex="1">
          <mxGeometry x="257.5" y="380" width="145" height="38" as="geometry" />
        </mxCell>
        <mxCell id="-ONRqXB-hZa3HiM5yPUT-28" value="" style="endArrow=classic;html=1;rounded=0;" parent="1" source="-ONRqXB-hZa3HiM5yPUT-2" target="-ONRqXB-hZa3HiM5yPUT-27" edge="1">
          <mxGeometry width="50" height="50" relative="1" as="geometry">
            <mxPoint x="90" y="530" as="sourcePoint" />
            <mxPoint x="450" y="692" as="targetPoint" />
          </mxGeometry>
        </mxCell>
        <mxCell id="-ONRqXB-hZa3HiM5yPUT-29" value="Xử lý khiếu nại của khách hàng" style="ellipse;whiteSpace=wrap;html=1;" parent="1" vertex="1">
          <mxGeometry x="390" y="500" width="120" height="60" as="geometry" />
        </mxCell>
        <mxCell id="-ONRqXB-hZa3HiM5yPUT-30" value="" style="endArrow=classic;html=1;rounded=0;" parent="1" source="-ONRqXB-hZa3HiM5yPUT-2" target="-ONRqXB-hZa3HiM5yPUT-29" edge="1">
          <mxGeometry width="50" height="50" relative="1" as="geometry">
            <mxPoint x="160" y="586" as="sourcePoint" />
            <mxPoint x="480" y="780" as="targetPoint" />
          </mxGeometry>
        </mxCell>
        <mxCell id="-ONRqXB-hZa3HiM5yPUT-31" value="Thêm dịch vụ" style="ellipse;whiteSpace=wrap;html=1;" parent="1" vertex="1">
          <mxGeometry x="560" y="270" width="110" height="50" as="geometry" />
        </mxCell>
        <mxCell id="-ONRqXB-hZa3HiM5yPUT-32" value="" style="endArrow=classic;html=1;rounded=0;exitX=0.5;exitY=0.5;exitDx=0;exitDy=0;exitPerimeter=0;" parent="1" source="-ONRqXB-hZa3HiM5yPUT-9" target="-ONRqXB-hZa3HiM5yPUT-31" edge="1">
          <mxGeometry width="50" height="50" relative="1" as="geometry">
            <mxPoint x="450" y="422" as="sourcePoint" />
            <mxPoint x="770" y="616" as="targetPoint" />
          </mxGeometry>
        </mxCell>
        <mxCell id="-ONRqXB-hZa3HiM5yPUT-36" value="Sửa dịch vụ" style="ellipse;whiteSpace=wrap;html=1;" parent="1" vertex="1">
          <mxGeometry x="450" y="310" width="110" height="50" as="geometry" />
        </mxCell>
        <mxCell id="-ONRqXB-hZa3HiM5yPUT-37" value="" style="endArrow=classic;html=1;rounded=0;" parent="1" source="-ONRqXB-hZa3HiM5yPUT-9" target="-ONRqXB-hZa3HiM5yPUT-36" edge="1">
          <mxGeometry width="50" height="50" relative="1" as="geometry">
            <mxPoint x="455" y="490" as="sourcePoint" />
            <mxPoint x="775" y="684" as="targetPoint" />
          </mxGeometry>
        </mxCell>
        <mxCell id="-ONRqXB-hZa3HiM5yPUT-38" value="Xóa dịch vụ" style="ellipse;whiteSpace=wrap;html=1;" parent="1" vertex="1">
          <mxGeometry x="510" y="360" width="110" height="50" as="geometry" />
        </mxCell>
        <mxCell id="-ONRqXB-hZa3HiM5yPUT-39" value="" style="endArrow=classic;html=1;rounded=0;" parent="1" source="-ONRqXB-hZa3HiM5yPUT-9" target="-ONRqXB-hZa3HiM5yPUT-38" edge="1">
          <mxGeometry width="50" height="50" relative="1" as="geometry">
            <mxPoint x="730" y="416" as="sourcePoint" />
            <mxPoint x="775" y="754" as="targetPoint" />
          </mxGeometry>
        </mxCell>
        <mxCell id="-ONRqXB-hZa3HiM5yPUT-40" value="" style="endArrow=classic;html=1;rounded=0;" parent="1" source="-ONRqXB-hZa3HiM5yPUT-9" target="-ONRqXB-hZa3HiM5yPUT-29" edge="1">
          <mxGeometry width="50" height="50" relative="1" as="geometry">
            <mxPoint x="325.13" y="359.84" as="sourcePoint" />
            <mxPoint x="615.13" y="517.84" as="targetPoint" />
          </mxGeometry>
        </mxCell>
      </root>
    </mxGraphModel>
  </diagram>
</mxfile>
